# AST/ASF file generated using VICON BodyLanguage
# -----------------------------------------------
:version 1.10
:name VICON
:units
  mass 1.0
  length 0.45
  angle deg
:documentation
   .ast/.asf automatically generated from VICON data using
   VICON BodyBuilder and BodyLanguage model FoxedUp or BRILLIANT.MOD
:root
   order TX TY TZ RX RY RZ
   axis XYZ
   position 0 0 0  
   orientation 0 0 0 
:bonedata
  begin
     id 1 
     name lhipjoint
     direction 0.589753 -0.68606 0.426044 
     length 2.54082 
     axis 0 0 0  XYZ
  end
  begin
     id 2 
     name lfemur
     direction 0.34202 -0.939693 0  
     length 7.04539  
     axis 0 0 20  XYZ
    dof rx ry rz
    limits (-160.0 20.0)
           (-70.0 70.0)
           (-60.0 70.0)
  end
  begin
     id 3 
     name ltibia
     direction 0.34202 -0.939693 0   
     length 7.83772   
     axis 0 0 20   XYZ
    dof rx
    limits (-10.0 170.0)
  end
  begin
     id 4 
     name lfoot
     direction 0.0596604 -0.163915 0.984669   
     length 2.39542   
     axis -90 7.62852e-016 20   XYZ
    dof rx rz
    limits (-45.0 90.0)
           (-70.0 20.0)
  end
  begin
     id 5 
     name ltoes
     direction 1.53514e-011 -4.21954e-011 1   
     length 1.2047   
     axis -90 7.62852e-016 20   XYZ
    dof rx
    limits (-90.0 20.0)
  end
  begin
     id 6 
     name rhipjoint
     direction -0.580585 -0.69168 0.429534   
     length 2.52018  
     axis 0 0 0  XYZ 
  end
  begin
     id 7 
     name rfemur
     direction -0.34202 -0.939693 0   
     length 7.0101   
     axis 0 0 -20   XYZ
    dof rx ry rz
    limits (-160.0 20.0)
           (-70.0 70.0)
           (-70.0 60.0)
  end
  begin
     id 8 
     name rtibia
     direction -0.34202 -0.939693 0   
     length 7.70628   
     axis 0 0 -20   XYZ
    dof rx
    limits (-10.0 170.0)
 end
 begin
     id 9 
     name rfoot
     direction -0.0696237 -0.19129 0.979061   
     length 2.52466  
     axis -90 -7.62852e-016 -20   XYZ
    dof rx rz
    limits (-45.0 90.0)
           (-20.0 70.0)
  end
  begin
     id 10 
     name rtoes
     direction -1.53519e-011 -4.21793e-011 1   
     length 1.266   
     axis -90 -7.62852e-016 -20   XYZ
    dof rx
    limits (-90.0 20.0)
  end
  begin
     id 11 
     name lowerback
     direction 0.00381965 0.995707 -0.0924856   
     length 2.20825   
     axis 0 0 0   XYZ
    dof rx ry rz
    limits (-20.0 45.0)
           (-30.0 30.0)
           (-30.0 30.0)
  end
  begin
     id 12 
     name upperback
     direction -0.0139043 0.999634 -0.0231929   
     length 2.21517   
     axis 0 0 0   XYZ
    dof rx ry rz
    limits (-20.0 45.0)
           (-30.0 30.0)
           (-30.0 30.0)
  end
  begin
     id 13 
     name thorax
     direction -0.0143933 0.999691 0.0202892   
     length 2.22911   
     axis 0 0 0   XYZ
    dof rx ry rz
    limits (-20.0 45.0)
           (-30.0 30.0)
           (-30.0 30.0)
  end
  begin
     id 14 
     name lowerneck
     direction -0.0251153 0.981819 0.188153   
     length 1.61782   
     axis 0 0 0   XYZ
    dof rx ry rz
    limits (-20.0 45.0)
           (-30.0 30.0)
           (-30.0 30.0)
  end
  begin
     id 15 
     name upperneck
     direction 0.0563891 0.969357 -0.239095   
     length 1.64526   
     axis 0 0 0   XYZ
    dof rx ry rz
    limits (-20.0 45.0)
           (-30.0 30.0)
           (-30.0 30.0)
  end
  begin
     id 16
     name head
     direction 0.0208328 0.99459 -0.101773  
     length 1.67436  
     axis 0 0 0   XYZ
    dof rx ry rz
    limits (-20.0 45.0)
           (-30.0 30.0)
           (-30.0 30.0)
  end
  begin
     id 17 
     name lclavicle
     direction 0.917689 0.397224 0.00772059  
     length 3.31102  
     axis 0 0 0   XYZ
    dof ry rz
    limits (-20.0 10.0)
           (0.0 20.0)
  end
  begin
     id 18 
     name lhumerus
     direction 1 -4.4896e-011 2.32308e-027   
     length 5.25537   
     axis 180 -30 -90   XYZ
    dof rx ry rz
    limits (-60.0 90.0)
           (-90.0 90.0)
           (-90.0 90.0)
  end
  begin
     id 19
     name lradius
     direction 1 -4.49005e-011 -2.04271e-027   
     length 3.38855   
     axis 180 -30 -90   XYZ
    dof rx
    limits (-10.0 170.0)
  end
  begin
     id 20
     name lwrist
     direction 1 -4.48892e-011 2.56952e-028   
     length 1.69428   
     axis -5.12785e-016 90 90   XYZ
    dof ry
    limits (-180.0 0.0)
 end
  begin
     id 21 
     name lhand
     direction 1 -4.48966e-011 5.13905e-028   
     length 0.614516   
     axis -3.27915e-016 90 90   XYZ
    dof rx rz
    limits (-90.0 90.0)
           (-45.0 45.0)
  end
  begin
     id 22 
     name lfingers
     direction 1 -4.48979e-011 1.02781e-027   
     length 0.495439   
     axis -6.5583e-016 90 90   XYZ
    dof rx
    limits (0.0 90.0)
  end
  begin
     id 23
     name lthumb
     direction 0.707107 -6.35001e-011 0.707107   
     length 0.711354   
     axis -90 45 2.85299e-015   XYZ
    dof rx rz
    limits (-45.0 45.0)
           (-45.0 45.0)
  end
  begin
     id 24 
     name rclavicle
     direction -0.938556 0.342765 -0.0403177   
     length 3.27019  
     axis 0 0 0   XYZ 
    dof ry rz
    limits (-10.0 20.0)
           (-20.0 0.0)
  end
  begin
     id 25 
     name rhumerus
     direction -1 -4.48966e-011 2.52291e-027  
     length 5.38183   
     axis 180 30 90   XYZ
    dof rx ry rz
    limits (-90.0 60.0)
           (-90.0 90.0)
           (-90.0 90.0)
  end
  begin
     id 26 
     name rradius
     direction -1 -4.4896e-011 1.5797e-027   
     length 3.16988   
     axis 180 30 90   XYZ
    dof rx
    limits (-10.0 170.0)
  end
  begin
     id 27 
     name rwrist
     direction -1 -4.48947e-011 2.56952e-028   
     length 1.58494   
     axis -5.12785e-016 -90 -90   XYZ
    dof ry
    limits (-180.0 0.0)
  end
  begin
     id 28
     name rhand
     direction -1 -4.49098e-011 5.13905e-028   
     length 0.637679   
     axis -3.27915e-016 -90 -90   XYZ
    dof rx rz
    limits (-90.0 90.0)
           (-45.0 45.0)
  end
  begin
     id 29
     name rfingers
     direction -1 -4.49026e-011 1.02781e-027   
     length 0.514113   
     axis -6.5583e-016 -90 -90   XYZ
    dof rx
    limits (0.0 90.0)
  end
  begin
     id 30
     name rthumb
     direction -0.707107 -6.3491e-011 0.707107   
     length 0.738167   
     axis -90 -45 -2.85299e-015   XYZ
    dof rx rz
    limits (-45.0 45.0)
           (-45.0 45.0)
  end
:hierarchy
  begin
    root lhipjoint rhipjoint lowerback
    lhipjoint lfemur
    lfemur ltibia
    ltibia lfoot
    lfoot ltoes
    rhipjoint rfemur
    rfemur rtibia
    rtibia rfoot
    rfoot rtoes
    lowerback upperback
    upperback thorax
    thorax lowerneck lclavicle rclavicle
    lowerneck upperneck
    upperneck head
    lclavicle lhumerus
    lhumerus lradius
    lradius lwrist
    lwrist lhand lthumb
    lhand lfingers
    rclavicle rhumerus
    rhumerus rradius
    rradius rwrist
    rwrist rhand rthumb
    rhand rfingers
  end

#!OML:ASF H:\Swim\Project 1\Capture day 1\Session 1\swimmer.ASF
:FULLY-SPECIFIED
:DEGREES
1337
root 4.40646 12.1564 7.66306 62.6086 -4.02301 0.392925
lowerback 19.7866 0.641688 -3.81597
upperback -0.904489 -0.34765 -2.39601
thorax -12.1751 -0.0139051 -0.38844
lowerneck -24.3349 -4.97441 -8.08723
upperneck 36.6655 -6.58724 6.91225
head 18.4824 -2.71063 3.19001
rclavicle -6.36111e-015 2.60408e-014
rhumerus -24.1162 44.7687 -33.8563
rradius 107.276
rwrist -33.0764
rhand 34.9487 0.447874
rfingers 7.12502
rthumb 58.0925 -15.1903
lclavicle -6.36111e-015 2.60408e-014
lhumerus -10.9659 -27.3283 20.5648
lradius 103.794
lwrist -2.90439
lhand -0.27937 -360.744
lfingers 7.12502
lthumb 25.3228 -692.405
rfemur -12.1519 -7.37898 2.96993
rtibia 91.093
rfoot -0.0572355 -6.53396
rtoes -11.1455
lfemur -10.9571 3.29581 -14.1464
ltibia 85.8218
lfoot 8.86752 5.9205
ltoes 3.35089
1338
root 4.40781 12.1578 7.66903 62.6604 -4.0197 0.371325
lowerback 19.7838 0.641466 -3.79572
upperback -0.940533 -0.342662 -2.37995
thorax -12.2148 -0.0115817 -0.384222
lowerneck -24.2792 -4.94728 -8.07716
upperneck 36.6443 -6.54396 6.88821
head 18.4483 -2.69671 3.18599
rclavicle 5.96354e-016 1.83876e-014
rhumerus -23.2052 44.3461 -33.395
rradius 107.315
rwrist -33.2162
rhand 34.8977 0.280523
rfingers 7.12502
rthumb 58.0481 -15.3977
lclavicle 5.96354e-016 1.83876e-014
lhumerus -10.3626 -26.92 20.8483
lradius 103.665
lwrist -3.33351
lhand -1.41185 -360.404
lfingers 7.12502
lthumb 24.2374 -691.915
rfemur -12.0422 -7.04837 2.75221
rtibia 91.0381
rfoot -0.315672 -6.85298
rtoes -11.5954
lfemur -10.8332 3.00319 -13.9849
ltibia 85.4666
lfoot 8.73461 6.1613
ltoes 3.53661
1339
root 4.40915 12.1594 7.67405 62.709 -4.02648 0.351677
lowerback 19.7852 0.638534 -3.78843
upperback -0.97364 -0.344424 -2.36422
thorax -12.2534 -0.0115798 -0.370965
lowerneck -24.2359 -4.91617 -8.07314
upperneck 36.6334 -6.49441 6.87046
head 18.4234 -2.68026 3.18788
rclavicle -8.74653e-015 3.12092e-014
rhumerus -22.2739 43.8835 -32.9399
rradius 107.381
rwrist -33.3923
rhand 34.7441 0.105196
rfingers 7.12502
rthumb 57.914 -15.6931
lclavicle -8.74653e-015 3.12092e-014
lhumerus -9.79372 -26.534 21.1651
lradius 103.575
lwrist -3.6973
lhand -2.59385 -360.057
lfingers 7.12502
lthumb 23.1037 -691.423
rfemur -11.946 -6.68536 2.53643
rtibia 90.9966
rfoot -0.505055 -7.11613
rtoes -11.7464
lfemur -10.7139 2.67097 -13.8612
ltibia 85.119
lfoot 8.59707 6.45105
ltoes 3.67523
1340
root 4.41047 12.161 7.67913 62.7552 -4.03737 0.331755
lowerback 19.7904 0.633427 -3.78491
upperback -1.0039 -0.350052 -2.34874
thorax -12.2908 -0.0131522 -0.354656
lowerneck -24.2089 -4.88354 -8.07638
upperneck 36.6347 -6.44239 6.86099
head 18.4103 -2.66257 3.19603
rclavicle 4.77083e-015 -9.93923e-015
rhumerus -21.332 43.3922 -32.4904
rradius 107.477
rwrist -33.6435
rhand 34.478 -0.0930279
rfingers 7.12502
rthumb 57.6815 -16.0968
lclavicle 4.77083e-015 -9.93923e-015
lhumerus -9.2579 -26.1771 21.5086
lradius 103.522
lwrist -3.99532
lhand -3.82971 -359.715
lfingers 7.12502
lthumb 21.9175 -690.936
rfemur -11.8566 -6.30143 2.32521
rtibia 90.9644
rfoot -0.629659 -7.3045
rtoes -11.5518
lfemur -10.5963 2.33836 -13.7421
ltibia 84.7793
lfoot 8.4714 6.7356
ltoes 3.73843
1341
root 4.41176 12.1626 7.6843 62.7999 -4.05338 0.312464
lowerback 19.8007 0.629265 -3.78278
upperback -1.03631 -0.355812 -2.33851
thorax -12.3338 -0.014838 -0.343474
lowerneck -24.1785 -4.85 -8.07022
upperneck 36.645 -6.39244 6.84771
head 18.401 -2.64498 3.20061
rclavicle 5.1684e-015 -8.15017e-015
rhumerus -20.4134 42.8839 -32.0703
rradius 107.602
rwrist -33.9803
rhand 34.0823 -0.317311
rfingers 7.12502
rthumb 57.3349 -16.6209
lclavicle 5.1684e-015 -8.15017e-015
lhumerus -8.74595 -25.8596 21.8703
lradius 103.502
lwrist -4.23329
lhand -5.1003 -359.382
lfingers 7.12502
lthumb 20.697 -690.465
rfemur -11.7774 -5.9094 2.11177
rtibia 90.9456
rfoot -0.739518 -7.46182
rtoes -11.3366
lfemur -10.4824 2.00869 -13.629
ltibia 84.4522
lfoot 8.36675 6.9983
ltoes 3.79069
